<svg height="512" viewBox="0 0 128 128" width="512" xmlns="http://www.w3.org/2000/svg"><g><path d="m1.751 126.247 62.249-59.763 62.249 59.763z" fill="#ebae56"/><path d="m126.249 46.753-46.998 34.373 46.998 45.121z" fill="#fbc56d"/><path d="m1.751 46.753 46.998 34.373-46.998 45.121z" fill="#fbc56d"/><g fill="#ebae56"><path d="m104 63.025 22.249-16.272-22.249-16.086z"/><path d="m24 30.667-22.249 16.086 22.249 16.272z"/><path d="m84.751 16.75-20.751-15.003-20.751 15.003z"/></g><path d="m48.749 81.126 15.251-14.642 15.251 14.642 24.749-18.101v-46.275h-80v46.275z" fill="#fff5f5"/><g fill="#f1e4e0"><path d="m94 28.5h-60a1.75 1.75 0 0 1 0-3.5h60a1.75 1.75 0 0 1 0 3.5z"/><path d="m89.406 36.805h-50.812a1.75 1.75 0 0 1 0-3.5h50.812a1.75 1.75 0 0 1 0 3.5z"/><path d="m94 45.109h-60a1.75 1.75 0 0 1 0-3.5h60a1.75 1.75 0 0 1 0 3.5z"/><path d="m89.406 53.414h-50.812a1.75 1.75 0 0 1 0-3.5h50.812a1.75 1.75 0 0 1 0 3.5z"/><path d="m94 61.719h-60a1.75 1.75 0 0 1 0-3.5h60a1.75 1.75 0 0 1 0 3.5z"/></g></g></svg>